<mxfile host="65bd71144e">
    <diagram id="VlKhvkd1QIbKm-ZkIWUM" name="Page-1">
        <mxGraphModel dx="534" dy="859" grid="1" gridSize="10" guides="1" tooltips="1" connect="1" arrows="1" fold="1" page="1" pageScale="1" pageWidth="827" pageHeight="1169" math="0" shadow="0">
            <root>
                <mxCell id="0"/>
                <mxCell id="1" parent="0"/>
                <mxCell id="2" value="" style="rounded=0;whiteSpace=wrap;html=1;" parent="1" vertex="1">
                    <mxGeometry x="20" y="200" width="270" height="280" as="geometry"/>
                </mxCell>
                <mxCell id="6" value="term:usr1" style="swimlane;" parent="1" vertex="1">
                    <mxGeometry x="10" y="80" width="110" height="70" as="geometry"/>
                </mxCell>
                <mxCell id="7" value="term:usr2" style="swimlane;" parent="1" vertex="1">
                    <mxGeometry x="140" y="80" width="110" height="70" as="geometry"/>
                </mxCell>
                <mxCell id="8" value=":Game24Server" style="html=1;rounded=0;" vertex="1" parent="1">
                    <mxGeometry x="90" y="350" width="90" height="30" as="geometry"/>
                </mxCell>
                <mxCell id="9" value="" style="endArrow=none;html=1;rounded=0;align=center;verticalAlign=top;endFill=0;labelBackgroundColor=none;endSize=2;exitX=0.5;exitY=0;exitDx=0;exitDy=0;" edge="1" source="8" target="10" parent="1">
                    <mxGeometry relative="1" as="geometry"/>
                </mxCell>
                <mxCell id="10" value="" style="ellipse;html=1;fontSize=11;align=center;fillColor=none;points=[];aspect=fixed;resizable=0;verticalAlign=bottom;labelPosition=center;verticalLabelPosition=top;flipH=1;" vertex="1" parent="1">
                    <mxGeometry x="131" y="320" width="8" height="8" as="geometry"/>
                </mxCell>
                <mxCell id="11" value=":Game24Server" style="html=1;rounded=0;" vertex="1" parent="1">
                    <mxGeometry x="100" y="260" width="90" height="30" as="geometry"/>
                </mxCell>
                <mxCell id="12" value="" style="endArrow=none;html=1;rounded=0;align=center;verticalAlign=top;endFill=0;labelBackgroundColor=none;endSize=2;exitX=0.5;exitY=0;exitDx=0;exitDy=0;" edge="1" parent="1" source="11">
                    <mxGeometry relative="1" as="geometry">
                        <mxPoint x="80" y="150" as="targetPoint"/>
                    </mxGeometry>
                </mxCell>
                <mxCell id="14" value="" style="endArrow=none;html=1;rounded=0;align=center;verticalAlign=top;endFill=0;labelBackgroundColor=none;endSize=2;exitX=0.5;exitY=0;exitDx=0;exitDy=0;entryX=0.5;entryY=1;entryDx=0;entryDy=0;" edge="1" parent="1" source="11" target="7">
                    <mxGeometry relative="1" as="geometry">
                        <mxPoint x="155" y="270" as="sourcePoint"/>
                        <mxPoint x="90" y="160" as="targetPoint"/>
                    </mxGeometry>
                </mxCell>
            </root>
        </mxGraphModel>
    </diagram>
</mxfile>